Coordinates
version=1
nRows=8
nColumns=63
inDegrees=yes

Units are S.I. units (second, meters, Newtons, ...)
If the header above contains a line with 'inDegrees', this indicates whether rotational values are in degrees (yes) or radians (no).

endheader
time	pelvis_tilt	pelvis_list	pelvis_rotation	pelvis_tx	pelvis_ty	pelvis_tz	hip_flexion_r	hip_adduction_r	hip_rotation_r	knee_angle_r	knee_angle_r_beta	ankle_angle_r	subtalar_angle_r	mtp_angle_r	hip_flexion_l	hip_adduction_l	hip_rotation_l	knee_angle_l	knee_angle_l_beta	ankle_angle_l	subtalar_angle_l	mtp_angle_l	L5_S1_Flex_Ext	L5_S1_Lat_Bending	L5_S1_axial_rotation	L4_L5_Flex_Ext	L4_L5_Lat_Bending	L4_L5_axial_rotation	L3_L4_Flex_Ext	L3_L4_Lat_Bending	L3_L4_axial_rotation	L2_L3_Flex_Ext	L2_L3_Lat_Bending	L2_L3_axial_rotation	L1_L2_Flex_Ext	L1_L2_Lat_Bending	L1_L2_axial_rotation	L1_T12_Flex_Ext	L1_T12_Lat_Bending	L1_T12_axial_rotation	Abs_r3	Abs_r2	Abs_r1	Abs_t1	Abs_t2	neck_flexion	neck_bending	neck_rotation	arm_flex_r	arm_add_r	arm_rot_r	elbow_flex_r	pro_sup_r	wrist_flex_r	wrist_dev_r	arm_flex_l	arm_add_l	arm_rot_l	elbow_flex_l	pro_sup_l	wrist_flex_l	wrist_dev_l
      0.96610169	     -0.60114350	      0.32357696	     85.08475410	      0.24837637	      0.98292557	      0.49899361	      1.28197358	     -1.14287347	      4.48535766	      4.25752825	      0.07430789	     32.57468750	      6.30824001	      0.00000000	      0.89297302	     -0.42309638	      2.96527235	      0.25643561	      0.00447565	     32.87308392	     -2.06781882	      0.00000000	     -0.14016455	     -0.09092635	      1.52042276	     -0.26029959	     -0.12093204	      1.61544918	     -0.23027634	     -0.22107832	      1.61544918	     -0.16019406	     -0.22107832	      1.33036991	     -0.13015680	     -0.18541701	      1.23534349	     -0.08009002	     -0.14084491	      1.14031707	     -1.00118137	     -1.02857703	      8.45613524	      0.00000000	      0.00000000	     24.97662725	      2.68857529	      9.42317955	      7.72035578	    -12.19278402	    107.86092583	      3.60140057	      2.10913075	     -3.42172693	     -6.86055182	     12.83156257	    -15.59320093	    126.50168482	      5.23720286	      9.70156269	     -7.83013432	     -5.60185025
      0.98305085	     -0.91036086	      0.29981432	     85.77782787	      0.24861395	      0.98278991	      0.49812786	      1.14444167	     -1.45071184	      2.90401344	      4.05551593	      0.07078211	     32.87012518	      7.65081554	      0.00000000	      1.04375063	     -0.15687102	      2.78207218	      0.25166903	      0.00439245	     33.45240702	     -0.58430376	      0.00000000	     -0.12451180	     -0.15964701	      1.33473886	     -0.23123086	     -0.21233052	      1.41816004	     -0.20456044	     -0.38816574	      1.41816004	     -0.14230454	     -0.38816574	      1.16789650	     -0.11562166	     -0.32555218	      1.08447532	     -0.07114604	     -0.24729322	      1.00105414	     -0.88937534	     -1.80595891	      7.42341711	      0.00000000	      0.00000000	     25.00275624	      3.55692860	      9.33567115	      7.38081313	    -11.95124208	    110.66833601	      2.87426095	      1.92563245	     -3.44263224	     -6.20631410	     11.89715940	    -16.92842101	    126.28129741	      5.19388628	      9.82212030	     -7.82055838	     -5.72741669
      1.00000000	     -1.16928427	      0.44788381	     86.31853834	      0.24892368	      0.98295923	      0.49694055	      0.70679557	     -1.69510062	      2.03130859	      3.61121392	      0.06302757	     32.95474211	      8.27103784	      0.00000000	      0.97070980	      0.07369839	      2.22542751	      0.24171951	      0.00421880	     34.06236227	      1.11905093	      0.00000000	     -0.12870974	     -0.22629438	      1.21108061	     -0.23902686	     -0.30097153	      1.28677315	     -0.21145723	     -0.55021217	      1.28677315	     -0.14710236	     -0.55021217	      1.05969553	     -0.11951986	     -0.46145951	      0.98400300	     -0.07354474	     -0.35053000	      0.90831046	     -0.91936080	     -2.55988734	      6.73566703	      0.00000000	      0.00000000	     25.05584182	      4.36603805	      8.59829177	      6.91783103	    -11.88088207	    110.89935878	      2.73551330	      2.31609453	     -3.68102314	     -5.78762129	     11.04717443	    -18.25795016	    122.83454243	      5.57596256	     11.17735900	     -7.68496682	     -6.18394225
      1.01694915	     -1.47359014	      0.63340760	     86.94371862	      0.24911967	      0.98325913	      0.49525590	      0.19954649	     -1.98332035	      1.05196333	      3.16854799	      0.05530159	     33.10535457	      8.79997057	      0.00000000	      0.82532416	      0.36296942	      2.30113940	      0.23247652	      0.00405748	     34.46408263	      1.97593140	      0.00000000	     -0.13238562	     -0.29608774	      1.04105429	     -0.24585334	     -0.39379670	      1.10612019	     -0.21749634	     -0.71990773	      1.10612019	     -0.15130353	     -0.71990773	      0.91092251	     -0.12293329	     -0.60378212	      0.84585661	     -0.07564515	     -0.45863991	      0.78079072	     -0.94561727	     -3.34940374	      5.79003166	      0.00000000	      0.00000000	     25.06579378	      4.72853466	      7.46014240	      6.49317804	    -11.72187536	    114.02202695	      2.27233487	      2.53708309	     -4.09840287	     -5.12725198	     10.06849885	    -19.35589526	    121.61404536	      5.54000859	      9.38586065	     -7.05725634	     -6.59605736
      1.03389831	     -1.54509160	      0.83340694	     87.38725663	      0.24918138	      0.98353321	      0.49347718	     -0.28016421	     -2.05813661	     -0.40545789	      2.83154045	      0.04941970	     33.42385062	     10.17636814	      0.00000000	      0.62874508	      0.41827506	      1.75051158	      0.22025845	      0.00384424	     34.99863869	      3.45020419	      0.00000000	     -0.14087937	     -0.32977886	      0.90906057	     -0.26162708	     -0.43860589	      0.96587686	     -0.23145072	     -0.80182433	      0.96587686	     -0.16101104	     -0.80182433	      0.79542800	     -0.13082059	     -0.67248506	      0.73861172	     -0.08049847	     -0.51082746	      0.68179543	     -1.00628728	     -3.73052445	      5.05592220	      0.00000000	      0.00000000	     25.00255812	      4.94144531	      6.33762275	      6.03055384	    -11.73781425	    117.80849607	      1.73544887	      2.36865425	     -4.11327004	     -4.82099585	      9.14702794	    -20.11020245	    120.61526345	      5.36745950	      7.20069668	     -6.34825758	     -7.17480643
      1.05084746	     -1.59129686	      1.02359579	     87.71082042	      0.24931959	      0.98367326	      0.49200182	     -0.71259799	     -2.07408932	     -0.80603906	      2.51480180	      0.04389157	     33.60807785	     10.25092605	      0.00000000	      0.44027946	      0.44889454	      1.91677895	      0.20767799	      0.00362466	     35.27114042	      3.78450670	      0.00000000	     -0.15198143	     -0.35409882	      0.81638572	     -0.28224472	     -0.47095144	      0.86740983	     -0.24969030	     -0.86095588	      0.86740983	     -0.17369958	     -0.86095588	      0.71433751	     -0.14112996	     -0.72207832	      0.66331340	     -0.08684219	     -0.54849908	      0.61228929	     -1.08558819	     -4.00563672	      4.54049246	      0.00000000	      0.00000000	     24.94609009	      4.66136256	      4.85653897	      5.53599427	    -11.86491409	    118.66105980	      1.62929644	      2.80570396	     -4.10480896	     -5.06537504	      8.46908737	    -20.74604322	    119.21424460	      5.31491542	      5.64750763	     -5.50740705	     -7.71517134
      1.06779661	     -1.48922234	      1.19835529	     88.05876908	      0.24911544	      0.98364839	      0.49102149	     -1.02666285	     -1.94657755	     -1.17061751	      2.38381493	      0.04160542	     33.82897035	     10.12485371	      0.00000000	      0.29155182	      0.34857704	      2.14834115	      0.20155898	      0.00351787	     35.48427712	      3.99942967	      0.00000000	     -0.16715102	     -0.34947466	      0.71326029	     -0.31041616	     -0.46480130	      0.75783906	     -0.27461241	     -0.84971269	      0.75783906	     -0.19103690	     -0.84971269	      0.62410276	     -0.15521644	     -0.71264873	      0.57952399	     -0.09551009	     -0.54133625	      0.53494522	     -1.19394303	     -3.95332726	      3.96693977	      0.00000000	      0.00000000	     24.72122865	      4.16469533	      3.72535531	      5.09901267	    -12.11511966	    119.25831616	      1.53561939	      2.93383175	     -3.97118642	     -5.40361285	      7.91702103	    -21.09356017	    118.00379318	      5.15594667	      4.62131695	     -4.86515917	     -7.92152570
      1.08474576	     -1.31144983	      1.27279461	     88.54394184	      0.24858212	      0.98333726	      0.49058737	     -1.21604973	     -1.73672558	     -1.49099652	      2.26381756	      0.03951107	     33.99198775	      9.85025473	      0.00000000	      0.27288243	      0.17212958	      2.56229244	      0.19963746	      0.00348433	     35.62595453	      4.12182908	      0.00000000	     -0.17464960	     -0.32851347	      0.59617700	     -0.32434178	     -0.43692291	      0.63343806	     -0.28693183	     -0.79874764	      0.63343806	     -0.19960703	     -0.79874764	      0.52165488	     -0.16217962	     -0.66990466	      0.48439381	     -0.09979478	     -0.50886736	      0.44713275	     -1.24750466	     -3.71621004	      3.31575763	      0.00000000	      0.00000000	     24.59504837	      3.33456642	      2.75570487	      4.72167754	    -12.46685934	    119.40078325	      1.51764483	      2.81000077	     -3.64253050	     -5.51152557	      7.56196904	    -21.28254513	    116.65888849	      5.01725687	      4.08308945	     -4.24009743	     -7.77750212
